<svg xmlns="http://www.w3.org/2000/svg" xmlns:xlink="http://www.w3.org/1999/xlink" viewBox="0 0 118.69 49.88"><defs><style>.cls-1{fill:none;}.cls-2,.cls-6{font-size:24px;font-family:BerkshireSwash-Regular, Berkshire Swash;}.cls-2,.cls-5,.cls-6,.cls-7{fill:#fff;}.cls-3{letter-spacing:-0.05em;}.cls-4{letter-spacing:-0.21em;}.cls-6,.cls-7{stroke-miterlimit:10;stroke:url(#Unnamed_Pattern);}</style><pattern id="Unnamed_Pattern" data-name="Unnamed Pattern" width="118.69" height="48.88" patternUnits="userSpaceOnUse" viewBox="0 0 118.69 48.88"><rect class="cls-1" width="118.69" height="48.88"/><text class="cls-2" transform="translate(11.31 22.89)"><tspan class="cls-3">Y</tspan><tspan x="13.16" y="0">ear</tspan><tspan class="cls-4" x="45.75" y="0"> </tspan><tspan x="46.23" y="0">book</tspan></text><path class="cls-5" d="M28.86,29.45a10,10,0,0,0-4.12,3.21,9.43,9.43,0,0,0-1.11,1.87l.47.49a8.06,8.06,0,0,1,.78-1,5.1,5.1,0,0,1,1-.89,5.32,5.32,0,0,1,1.27-.61,4.65,4.65,0,0,1,1.54-.24,4.11,4.11,0,0,1,1.53.26,2.87,2.87,0,0,1,1.07.75,3.12,3.12,0,0,1,.62,1.15,4.86,4.86,0,0,1,.2,1.48,5.94,5.94,0,0,1-.5,2.34,13.13,13.13,0,0,1-1.29,2.37,23.08,23.08,0,0,1-1.77,2.26c-.66.73-1.31,1.4-2,2S25.36,46,24.8,46.45s-1,.8-1.38,1v1.08H35.61a2.09,2.09,0,0,0,1.25-.35,2.9,2.9,0,0,0,.85-.92,4.9,4.9,0,0,0,.51-1.3,15.06,15.06,0,0,0,.26-1.52c.06-.52.09-1,.11-1.54s0-1,0-1.36h-.72a2.49,2.49,0,0,1-.56,1.48,2.05,2.05,0,0,1-1.51.47H29.9l1.59-1c.58-.37,1.17-.77,1.77-1.19s1.18-.9,1.74-1.39a11.66,11.66,0,0,0,1.5-1.57,8,8,0,0,0,1.06-1.76,5,5,0,0,0,.39-2,6.48,6.48,0,0,0-.47-2.57,4.79,4.79,0,0,0-1.31-1.79,5.36,5.36,0,0,0-2-1,8.45,8.45,0,0,0-2.46-.35A7.52,7.52,0,0,0,28.86,29.45Z"/><path class="cls-5" d="M53.62,48.29a7.74,7.74,0,0,0,2.9-1.81,8.58,8.58,0,0,0,2-3.11,12.49,12.49,0,0,0,.72-4.46,12.55,12.55,0,0,0-.72-4.47,8.53,8.53,0,0,0-2-3.12,7.89,7.89,0,0,0-2.9-1.82,10.83,10.83,0,0,0-7.11,0,8,8,0,0,0-2.89,1.82,8.65,8.65,0,0,0-1.95,3.12A12.78,12.78,0,0,0,41,38.91a12.72,12.72,0,0,0,.71,4.46,8.69,8.69,0,0,0,1.95,3.11,7.86,7.86,0,0,0,2.89,1.81,11,11,0,0,0,7.11,0ZM50.78,30.67a1.8,1.8,0,0,1,.73.39,3.39,3.39,0,0,1,.69.87,5.87,5.87,0,0,1,.57,1.48,15.19,15.19,0,0,1,.39,2.29c.09.9.14,2,.14,3.25s0,2.36-.14,3.26a14.79,14.79,0,0,1-.39,2.25,5.46,5.46,0,0,1-.57,1.45,3.07,3.07,0,0,1-.69.82,1.72,1.72,0,0,1-.73.36,3.78,3.78,0,0,1-.72.08,3.58,3.58,0,0,1-.7-.08,1.72,1.72,0,0,1-.73-.36,3.06,3.06,0,0,1-.68-.82,6.28,6.28,0,0,1-.56-1.45A16.06,16.06,0,0,1,47,42.2,30.24,30.24,0,0,1,46.85,39,30,30,0,0,1,47,35.7a16.57,16.57,0,0,1,.39-2.29A6.78,6.78,0,0,1,48,31.93a3.37,3.37,0,0,1,.68-.87,1.8,1.8,0,0,1,.73-.39,2.57,2.57,0,0,1,.7-.1A2.71,2.71,0,0,1,50.78,30.67Z"/><path class="cls-5" d="M65.8,29.45a9.66,9.66,0,0,0-2.36,1.39,9.8,9.8,0,0,0-1.77,1.82,9.94,9.94,0,0,0-1.11,1.87L61,35a9.21,9.21,0,0,1,.79-1,4.78,4.78,0,0,1,1-.89,5.52,5.52,0,0,1,1.27-.61,4.69,4.69,0,0,1,1.54-.24,4.17,4.17,0,0,1,1.54.26,2.92,2.92,0,0,1,1.06.75,3.12,3.12,0,0,1,.62,1.15,4.85,4.85,0,0,1,.21,1.48,6.12,6.12,0,0,1-.5,2.34,13.85,13.85,0,0,1-1.3,2.37,21.65,21.65,0,0,1-1.77,2.26q-1,1.09-2,2c-.65.6-1.25,1.14-1.82,1.59s-1,.8-1.38,1v1.08h12.2a2.08,2.08,0,0,0,1.24-.35,2.79,2.79,0,0,0,.85-.92,4.9,4.9,0,0,0,.51-1.3,12.69,12.69,0,0,0,.26-1.52c.06-.52.1-1,.11-1.54s0-1,0-1.36h-.72a2.43,2.43,0,0,1-.56,1.48,2.05,2.05,0,0,1-1.51.47H66.83l1.59-1c.58-.37,1.17-.77,1.77-1.19s1.18-.9,1.74-1.39a11.66,11.66,0,0,0,1.5-1.57,7.63,7.63,0,0,0,1.06-1.76,5,5,0,0,0,.39-2,6.31,6.31,0,0,0-.47-2.57,4.79,4.79,0,0,0-1.31-1.79,5.36,5.36,0,0,0-2-1,8.45,8.45,0,0,0-2.46-.35A7.47,7.47,0,0,0,65.8,29.45Z"/><path class="cls-5" d="M90.56,48.29a7.9,7.9,0,0,0,2.9-1.81,8.71,8.71,0,0,0,2-3.11,12.49,12.49,0,0,0,.72-4.46,12.55,12.55,0,0,0-.72-4.47,8.67,8.67,0,0,0-2-3.12,8.05,8.05,0,0,0-2.9-1.82,10.86,10.86,0,0,0-7.12,0,8,8,0,0,0-2.89,1.82,8.65,8.65,0,0,0-2,3.12,12.78,12.78,0,0,0-.71,4.47,12.72,12.72,0,0,0,.71,4.46,8.69,8.69,0,0,0,2,3.11,7.86,7.86,0,0,0,2.89,1.81,11,11,0,0,0,7.12,0ZM87.71,30.67a1.83,1.83,0,0,1,.74.39,3.37,3.37,0,0,1,.68.87,5.87,5.87,0,0,1,.57,1.48,14,14,0,0,1,.39,2.29c.09.9.14,2,.14,3.25s0,2.36-.14,3.26a13.65,13.65,0,0,1-.39,2.25,5.46,5.46,0,0,1-.57,1.45,3.06,3.06,0,0,1-.68.82,1.75,1.75,0,0,1-.74.36,3.68,3.68,0,0,1-.71.08,3.59,3.59,0,0,1-.71-.08,1.78,1.78,0,0,1-.73-.36,2.86,2.86,0,0,1-.67-.82,6.24,6.24,0,0,1-.57-1.45,16.06,16.06,0,0,1-.39-2.26A30.24,30.24,0,0,1,83.78,39a30,30,0,0,1,.15-3.25,16.57,16.57,0,0,1,.39-2.29,6.74,6.74,0,0,1,.57-1.48,3.16,3.16,0,0,1,.67-.87,1.87,1.87,0,0,1,.73-.39,2.59,2.59,0,0,1,.71-.1A2.64,2.64,0,0,1,87.71,30.67Z"/></pattern></defs><title>Asset 1</title><g id="Layer_2" data-name="Layer 2"><g id="Layer_1-2" data-name="Layer 1"><text class="cls-6" transform="translate(11.31 23.39)"><tspan class="cls-3">Y</tspan><tspan x="13.16" y="0">ear</tspan><tspan class="cls-4" x="45.75" y="0"> </tspan><tspan x="46.23" y="0">book</tspan></text><path class="cls-7" d="M31.73,29.41a8.46,8.46,0,0,1,2.46.34,5.36,5.36,0,0,1,2,1,4.79,4.79,0,0,1,1.31,1.79A6.51,6.51,0,0,1,38,35.15a5,5,0,0,1-.39,2,8,8,0,0,1-1.06,1.76A11.66,11.66,0,0,1,35,40.43a20.77,20.77,0,0,1-1.74,1.39c-.6.43-1.19.82-1.77,1.19L29.9,44h5.91a2.05,2.05,0,0,0,1.51-.47,2.49,2.49,0,0,0,.56-1.48h.72c0,.41,0,.86,0,1.37s-.05,1-.11,1.53a15.06,15.06,0,0,1-.26,1.52,4.9,4.9,0,0,1-.51,1.3,2.9,2.9,0,0,1-.85.92,2.09,2.09,0,0,1-1.25.35H23.42V48c.35-.24.81-.58,1.38-1s1.17-1,1.81-1.59,1.3-1.28,2-2a23.08,23.08,0,0,0,1.77-2.26,13.13,13.13,0,0,0,1.29-2.37,5.94,5.94,0,0,0,.5-2.34,4.86,4.86,0,0,0-.2-1.48,3.12,3.12,0,0,0-.62-1.15A2.74,2.74,0,0,0,30.24,33a3.91,3.91,0,0,0-1.53-.27,4.65,4.65,0,0,0-1.54.24,5.32,5.32,0,0,0-1.27.61,5.43,5.43,0,0,0-1,.89,7.5,7.5,0,0,0-.78,1.05l-.47-.5a9.43,9.43,0,0,1,1.11-1.87A10,10,0,0,1,28.86,30,7.52,7.52,0,0,1,31.73,29.41Z"/><path class="cls-7" d="M50.06,49.38a10.58,10.58,0,0,1-3.55-.59A7.86,7.86,0,0,1,43.62,47a8.69,8.69,0,0,1-1.95-3.11A12.72,12.72,0,0,1,41,39.41a12.78,12.78,0,0,1,.71-4.47,8.65,8.65,0,0,1,1.95-3.12A8,8,0,0,1,46.51,30a11,11,0,0,1,7.11,0,7.89,7.89,0,0,1,2.9,1.82,8.53,8.53,0,0,1,2,3.12,12.55,12.55,0,0,1,.72,4.47,12.49,12.49,0,0,1-.72,4.46,8.58,8.58,0,0,1-2,3.11,7.74,7.74,0,0,1-2.9,1.81A10.59,10.59,0,0,1,50.06,49.38Zm0-18.31a2.57,2.57,0,0,0-.7.1,1.71,1.71,0,0,0-.73.4,3.15,3.15,0,0,0-.68.86,6.78,6.78,0,0,0-.56,1.48A16.57,16.57,0,0,0,47,36.2a30,30,0,0,0-.15,3.25A30.24,30.24,0,0,0,47,42.7,16.06,16.06,0,0,0,47.39,45,6.28,6.28,0,0,0,48,46.41a2.91,2.91,0,0,0,.68.82,1.72,1.72,0,0,0,.73.36,3,3,0,0,0,.7.08,3.11,3.11,0,0,0,.72-.08,1.72,1.72,0,0,0,.73-.36,2.92,2.92,0,0,0,.69-.82A5.46,5.46,0,0,0,52.77,45a14.79,14.79,0,0,0,.39-2.25c.09-.9.14-2,.14-3.26s0-2.35-.14-3.25a15.19,15.19,0,0,0-.39-2.29,5.87,5.87,0,0,0-.57-1.48,3.16,3.16,0,0,0-.69-.86,1.71,1.71,0,0,0-.73-.4A2.71,2.71,0,0,0,50.06,31.07Z"/><path class="cls-7" d="M68.66,29.41a8.46,8.46,0,0,1,2.46.34,5.36,5.36,0,0,1,2,1,4.79,4.79,0,0,1,1.31,1.79,6.34,6.34,0,0,1,.47,2.57,5,5,0,0,1-.39,2,7.63,7.63,0,0,1-1.06,1.76,11.66,11.66,0,0,1-1.5,1.57,20.77,20.77,0,0,1-1.74,1.39c-.6.43-1.19.82-1.77,1.19l-1.59,1h5.91a2.05,2.05,0,0,0,1.51-.47,2.43,2.43,0,0,0,.56-1.48h.72c0,.41,0,.86,0,1.37s0,1-.11,1.53a12.69,12.69,0,0,1-.26,1.52,4.9,4.9,0,0,1-.51,1.3,2.79,2.79,0,0,1-.85.92,2.08,2.08,0,0,1-1.24.35H60.35V48c.35-.24.81-.58,1.38-1s1.17-1,1.82-1.59,1.29-1.28,2-2a21.65,21.65,0,0,0,1.77-2.26,13.85,13.85,0,0,0,1.3-2.37,6.12,6.12,0,0,0,.5-2.34,4.85,4.85,0,0,0-.21-1.48,3.12,3.12,0,0,0-.62-1.15A2.78,2.78,0,0,0,67.18,33a4,4,0,0,0-1.54-.27A4.69,4.69,0,0,0,64.1,33a5.52,5.52,0,0,0-1.27.61,5.08,5.08,0,0,0-1,.89A8.48,8.48,0,0,0,61,35.53l-.47-.5a9.94,9.94,0,0,1,1.11-1.87,9.8,9.8,0,0,1,1.77-1.82A9.66,9.66,0,0,1,65.8,30,7.47,7.47,0,0,1,68.66,29.41Z"/><path class="cls-7" d="M87,49.38a10.64,10.64,0,0,1-3.56-.59A7.86,7.86,0,0,1,80.55,47a8.69,8.69,0,0,1-2-3.11,12.72,12.72,0,0,1-.71-4.46,12.78,12.78,0,0,1,.71-4.47,8.65,8.65,0,0,1,2-3.12A8,8,0,0,1,83.44,30a11,11,0,0,1,7.12,0,8.05,8.05,0,0,1,2.9,1.82,8.67,8.67,0,0,1,2,3.12,12.55,12.55,0,0,1,.72,4.47,12.49,12.49,0,0,1-.72,4.46,8.71,8.71,0,0,1-2,3.11,7.9,7.9,0,0,1-2.9,1.81A10.68,10.68,0,0,1,87,49.38Zm0-18.31a2.59,2.59,0,0,0-.71.1,1.77,1.77,0,0,0-.73.4,3,3,0,0,0-.67.86,6.74,6.74,0,0,0-.57,1.48,16.57,16.57,0,0,0-.39,2.29,30,30,0,0,0-.15,3.25,30.24,30.24,0,0,0,.15,3.25A16.06,16.06,0,0,0,84.32,45a6.24,6.24,0,0,0,.57,1.45,2.73,2.73,0,0,0,.67.82,1.78,1.78,0,0,0,.73.36,3,3,0,0,0,.71.08,3,3,0,0,0,.71-.08,1.75,1.75,0,0,0,.74-.36,2.91,2.91,0,0,0,.68-.82A5.46,5.46,0,0,0,89.7,45a13.65,13.65,0,0,0,.39-2.25c.09-.9.14-2,.14-3.26s0-2.35-.14-3.25a14,14,0,0,0-.39-2.29,5.87,5.87,0,0,0-.57-1.48,3.15,3.15,0,0,0-.68-.86,1.75,1.75,0,0,0-.74-.4A2.64,2.64,0,0,0,87,31.07Z"/></g></g></svg>